<svg width="306" height="329" viewBox="0 0 306 329" fill="none" xmlns="http://www.w3.org/2000/svg">
<circle cx="157.5" cy="83" r="8.5" fill="white"/>
<circle cx="236.5" cy="97.5" r="8.5" fill="white"/>
<path d="M114.001 0C124.402 13.9999 143.667 21.8333 152 24C205.6 9.2 242.667 32.1667 254.5 45.5C275.3 45.5 291.5 40.1667 297 37.5C280.5 87.5 232.223 59.4823 211 90.5C198 109.5 221.5 136 246.5 123.5C268.115 112.693 264 88.6667 259.5 78.5L273 72.5C291.8 102.1 277.5 128.5 268 138L265.5 135.5C269.9 130.3 271 124.667 271 122.5C265.8 134.5 254.5 139.833 249.5 141C253.9 141.8 261.333 140.333 264.5 139.5C298.5 274.3 128.333 298.667 39 294C187.4 259.6 182.167 181.333 161 146.5C180.2 226.1 105.667 260 66 267C60.4 172.601 98.9999 125.334 119 113.5C122.699 116.3 127.875 117.333 130 117.5C119.6 113.1 114 100.333 112.5 94.5C112.9 100.9 115.667 106.5 117 108.5L113.501 110.5C96.701 79.3001 115.168 54.1667 126.501 45.5L138.501 55C130.501 63 120.095 77.677 130.501 97.5C141 117.5 179.001 116 179.001 90.5C179.001 63.9812 152.001 56.4999 130.501 41C113.301 28.6 112.334 8.5 114.001 0ZM191 106C186.2 105.2 180.667 109.667 178.5 112L187.5 129L201 115C199.667 112.333 195.8 106.8 191 106Z" fill="white"/>
<path d="M150.34 295.154C130.094 293.678 123.047 303.154 122.054 308.077C121.723 309.308 122.749 312.139 129.498 313.616C136.247 315.093 139.919 324.487 140.912 329C147.661 325.554 149.346 317.759 149.346 311.687C152.846 313.259 155.303 318.687 155.303 324.077C163.846 321.187 170.587 296.631 150.34 295.154Z" fill="white"/>
<path d="M204.34 295.154C184.094 293.678 177.047 303.154 176.054 308.077C175.723 309.308 176.749 312.139 183.498 313.616C190.247 315.093 193.919 324.487 194.912 329C201.661 325.554 203.346 317.759 203.346 311.687C206.846 313.259 209.303 318.687 209.303 324.077C217.846 321.187 224.587 296.631 204.34 295.154Z" fill="white"/>
<rect y="303.187" width="306" height="8" rx="4" fill="white"/>
</svg>
